<?xml version="1.0" encoding="UTF-8"?>
<svg width="21px" height="21px" viewBox="0 0 21 21" version="1.1" xmlns="http://www.w3.org/2000/svg" xmlns:xlink="http://www.w3.org/1999/xlink">
    <!-- Generator: Sketch 54.1 (76490) - https://sketchapp.com -->
    <title>icon-video-position</title>
    <desc>Created with Sketch.</desc>
    <defs>
        <path d="M20.8359375,15.5048828 C20.8906253,15.5458986 20.9282226,15.5937497 20.9487305,15.6484375 C20.9692384,15.7031253 20.9794922,15.7646481 20.9794922,15.8330078 C20.9794922,15.8876956 20.9692384,15.9458005 20.9487305,16.0073242 C20.9282226,16.068848 20.8906253,16.120117 20.8359375,16.1611328 L20.671875,16.3251953 C20.671875,16.3251953 20.6650391,16.3320312 20.6513672,16.3457031 L18.046875,18.7041016 C17.9511714,18.7998052 17.8349616,18.8476562 17.6982422,18.8476562 C17.5615228,18.8476562 17.445313,18.7998052 17.3496094,18.7041016 L17.2265625,18.5400391 C17.1308589,18.4443355 17.0932616,18.3315436 17.1137695,18.2016602 C17.1342774,18.0717767 17.1923823,17.9658207 17.2880859,17.8837891 L18.8671875,16.46875 L11.2177734,16.46875 L11.2177734,24.1386719 L12.6328125,22.5595703 C12.7285161,22.4638667 12.83789,22.4057618 12.9609375,22.3852539 C13.083985,22.364746 13.1933589,22.4023433 13.2890625,22.4980469 L13.453125,22.6210938 C13.5488286,22.7167974 13.5966797,22.8330071 13.5966797,22.9697266 C13.5966797,23.106446 13.5488286,23.2226558 13.453125,23.3183594 L11.0332031,25.9638672 C11.0332031,25.9775391 11.0332031,25.984375 11.0332031,25.984375 C11.0332031,25.984375 11.0263673,25.984375 11.0126953,25.984375 L10.8486328,26.1484375 C10.807617,26.2031253 10.7597659,26.2407226 10.7050781,26.2612305 C10.6503904,26.2817384 10.5888675,26.2919922 10.5205078,26.2919922 C10.46582,26.2919922 10.4077152,26.2817384 10.3461914,26.2612305 C10.2846677,26.2407226 10.2333986,26.2031253 10.1923828,26.1484375 L10.0283203,25.984375 C10.0283203,25.984375 10.0214844,25.9775391 10.0078125,25.9638672 L7.64941406,23.359375 C7.55371046,23.2636714 7.50585938,23.1474616 7.50585938,23.0107422 C7.50585938,22.8740228 7.55371046,22.757813 7.64941406,22.6621094 L7.81347656,22.5390625 C7.90918017,22.4433589 8.02197201,22.4057616 8.15185547,22.4262695 C8.28173893,22.4467774 8.3876949,22.5048823 8.46972656,22.6005859 L9.88476562,24.1796875 L9.88476562,16.46875 L2.11230469,16.46875 L3.71191406,17.8837891 C3.80761767,17.9658207 3.86572255,18.0717767 3.88623047,18.2016602 C3.90673838,18.3315436 3.8691411,18.4443355 3.7734375,18.5400391 L3.65039062,18.7041016 C3.55468702,18.7998052 3.43847725,18.8476562 3.30175781,18.8476562 C3.16503838,18.8476562 3.0488286,18.7998052 2.953125,18.7041016 L0.348632812,16.3457031 C0.334960869,16.3320312 0.328125,16.3251953 0.328125,16.3251953 L0.1640625,16.1611328 C0.109374727,16.120117 0.0717774463,16.068848 0.0512695312,16.0073242 C0.0307616162,15.9458005 0.0205078125,15.8876956 0.0205078125,15.8330078 C0.0205078125,15.7646481 0.0307616162,15.7031253 0.0512695312,15.6484375 C0.0717774463,15.5937497 0.109374727,15.5458986 0.1640625,15.5048828 L0.184570312,15.4638672 C0.211914199,15.4091794 0.249511479,15.3613283 0.297363281,15.3203125 C0.345215083,15.2792967 0.396484102,15.2451173 0.451171875,15.2177734 L2.99414062,12.9003906 C3.08984423,12.804687 3.206054,12.7568359 3.34277344,12.7568359 C3.47949287,12.7568359 3.59570265,12.804687 3.69140625,12.9003906 L3.81445312,13.0644531 C3.91015673,13.1601567 3.94775401,13.2695306 3.92724609,13.3925781 C3.90673818,13.5156256 3.84863329,13.6249995 3.75292969,13.7207031 L2.17382812,15.1357422 L9.88476562,15.1357422 L9.88476562,7.4453125 L8.46972656,9.02441406 C8.3876949,9.12011767 8.28173893,9.17822255 8.15185547,9.19873047 C8.02197201,9.21923838 7.90918017,9.1816411 7.81347656,9.0859375 L7.64941406,8.96289062 C7.55371046,8.86718702 7.50585938,8.75097725 7.50585938,8.61425781 C7.50585938,8.47753838 7.55371046,8.3613286 7.64941406,8.265625 L10.0078125,5.66113281 C10.0214844,5.64746087 10.0283203,5.640625 10.0283203,5.640625 L10.1923828,5.4765625 C10.2333986,5.42187473 10.2846677,5.38427745 10.3461914,5.36376953 C10.4077152,5.34326162 10.46582,5.33300781 10.5205078,5.33300781 C10.5888675,5.33300781 10.6503904,5.34326162 10.7050781,5.36376953 C10.7597659,5.38427745 10.807617,5.42187473 10.8486328,5.4765625 L10.8896484,5.49707031 C10.9443362,5.5244142 10.9921873,5.56201148 11.0332031,5.60986328 C11.074219,5.65771508 11.1083983,5.7089841 11.1357422,5.76367188 L13.453125,8.30664062 C13.5488286,8.40234423 13.5966797,8.518554 13.5966797,8.65527344 C13.5966797,8.79199287 13.5488286,8.90820265 13.453125,9.00390625 L13.2890625,9.12695312 C13.1933589,9.22265673 13.083985,9.26025401 12.9609375,9.23974609 C12.83789,9.21923818 12.7285161,9.16113329 12.6328125,9.06542969 L11.1972656,7.48632812 L11.1972656,15.15625 L18.8261719,15.15625 L17.2470703,13.7207031 C17.1513667,13.6249995 17.0932618,13.5156256 17.0727539,13.3925781 C17.052246,13.2695306 17.0898433,13.1601567 17.1855469,13.0644531 L17.3085938,12.9003906 C17.4042974,12.804687 17.5205071,12.7568359 17.6572266,12.7568359 C17.793946,12.7568359 17.9101558,12.804687 18.0058594,12.9003906 L20.6513672,15.3203125 C20.6650391,15.3203125 20.671875,15.3203125 20.671875,15.3203125 C20.671875,15.3203125 20.671875,15.3271484 20.671875,15.3408203 L20.8359375,15.5048828 Z" id="path-1"></path>
        <filter x="-9.5%" y="-9.5%" width="119.1%" height="119.1%" filterUnits="objectBoundingBox" id="filter-2">
            <feGaussianBlur stdDeviation="1.5" in="SourceAlpha" result="shadowBlurInner1"></feGaussianBlur>
            <feOffset dx="0" dy="1" in="shadowBlurInner1" result="shadowOffsetInner1"></feOffset>
            <feComposite in="shadowOffsetInner1" in2="SourceAlpha" operator="arithmetic" k2="-1" k3="1" result="shadowInnerInner1"></feComposite>
            <feColorMatrix values="0 0 0 0 0   0 0 0 0 0   0 0 0 0 0  0 0 0 0.5 0" type="matrix" in="shadowInnerInner1"></feColorMatrix>
        </filter>
    </defs>
    <g id="Page-1" stroke="none" stroke-width="1" fill="none" fill-rule="evenodd">
        <g id="multiple-monitors-1of2" transform="translate(-446.000000, -630.000000)" fill-rule="nonzero">
            <g id="Group-15" transform="translate(359.500000, 67.000000)">
                <g id="Group-7" transform="translate(86.500000, 499.000000)">
                    <g id="Group-5">
                        <g id="Group-2">
                            <g id="Group-12">
                                <g id="vid-position" transform="translate(0.000000, 58.666667)">
                                    <g id="icon-video-position">
                                        <use fill="#000000" xlink:href="#path-1"></use>
                                        <use fill="black" fill-opacity="1" filter="url(#filter-2)" xlink:href="#path-1"></use>
                                    </g>
                                </g>
                            </g>
                        </g>
                    </g>
                </g>
            </g>
        </g>
    </g>
</svg>