<?xml version="1.0" encoding="UTF-8"?>
<svg width="26px" height="21px" viewBox="0 0 26 21" version="1.1" xmlns="http://www.w3.org/2000/svg" xmlns:xlink="http://www.w3.org/1999/xlink">
    <!-- Generator: Sketch 54.1 (76490) - https://sketchapp.com -->
    <title>icon-video-overlay</title>
    <desc>Created with Sketch.</desc>
    <defs>
        <path d="M42.0371094,13.3574219 C41.9069004,13.2923174 41.8051761,13.1946621 41.7319336,13.0644531 C41.658691,12.9342441 41.6220703,12.7958992 41.6220703,12.6494141 C41.6220703,12.502929 41.66276,12.368653 41.7441406,12.246582 C41.8255212,12.1245111 41.9313145,12.0309248 42.0615234,11.9658203 L53.7802734,6.08203125 C53.8942063,6.01692676 54.0122064,5.984375 54.1342773,5.984375 C54.2563483,5.984375 54.3743484,6.01692676 54.4882812,6.08203125 L66.0849609,11.9658203 C66.2151699,12.0309248 66.3168942,12.1245111 66.3901367,12.246582 C66.4633793,12.368653 66.5,12.502929 66.5,12.6494141 C66.5,12.7958992 66.4633793,12.9342441 66.3901367,13.0644531 C66.3168942,13.1946621 66.2233079,13.2923174 66.109375,13.3574219 L54.3662109,19.6806641 C54.3173826,19.7132163 54.260417,19.7335612 54.1953125,19.7416992 C54.130208,19.7498373 54.0651045,19.7539062 54,19.7539062 C53.9348955,19.7539062 53.873861,19.7457683 53.8168945,19.7294922 C53.7599281,19.7132161 53.6988936,19.6969402 53.6337891,19.6806641 L42.0371094,13.3574219 Z M54.1220703,7.64453125 L44.0878906,12.6982422 L54,18.09375 L64.0341797,12.6982422 L54.1220703,7.64453125 Z M65.9384766,17.703125 C66.0686855,17.7682295 66.1744788,17.8658848 66.2558594,17.9960938 C66.33724,18.1263027 66.3779297,18.2565098 66.3779297,18.3867188 C66.3779297,18.5332039 66.341309,18.6715488 66.2680664,18.8017578 C66.1948239,18.9319668 66.0930996,19.0296221 65.9628906,19.0947266 L54.2441406,25.4179688 C54.1790361,25.450521 54.1180016,25.4749348 54.0610352,25.4912109 C54.0040687,25.5074871 53.9430342,25.515625 53.8779297,25.515625 C53.8128252,25.515625 53.7477217,25.5074871 53.6826172,25.4912109 C53.6175127,25.4749348 53.5524092,25.450521 53.4873047,25.4179688 L41.890625,19.0947266 C41.7766921,19.0296221 41.6831058,18.9319668 41.6098633,18.8017578 C41.5366207,18.6715488 41.5,18.5332039 41.5,18.3867188 C41.5,18.2402336 41.5366207,18.1059576 41.6098633,17.9838867 C41.6831058,17.8618158 41.7848301,17.7682295 41.9150391,17.703125 L44.3808594,16.4824219 L46.0410156,17.3857422 L43.9658203,18.4355469 L53.8779297,23.8310547 L63.9121094,18.4355469 L61.9589844,17.4345703 L63.6191406,16.53125 L65.9384766,17.703125 Z" id="path-1"></path>
        <filter x="-8.0%" y="-10.2%" width="116.0%" height="120.5%" filterUnits="objectBoundingBox" id="filter-2">
            <feGaussianBlur stdDeviation="1.5" in="SourceAlpha" result="shadowBlurInner1"></feGaussianBlur>
            <feOffset dx="0" dy="1" in="shadowBlurInner1" result="shadowOffsetInner1"></feOffset>
            <feComposite in="shadowOffsetInner1" in2="SourceAlpha" operator="arithmetic" k2="-1" k3="1" result="shadowInnerInner1"></feComposite>
            <feColorMatrix values="0 0 0 0 0   0 0 0 0 0   0 0 0 0 0  0 0 0 0.5 0" type="matrix" in="shadowInnerInner1"></feColorMatrix>
        </filter>
    </defs>
    <g id="Page-1" stroke="none" stroke-width="1" fill="none" fill-rule="evenodd">
        <g id="multiple-monitors-1of2" transform="translate(-1044.000000, -572.000000)" fill-rule="nonzero">
            <g id="Group-15" transform="translate(359.500000, 67.000000)">
                <g id="Group-7" transform="translate(86.500000, 499.000000)">
                    <g id="Group-5">
                        <g id="Group-2">
                            <g id="Group-12-Copy-2" transform="translate(557.000000, 0.000000)">
                                <g id="vid-overlay" transform="translate(0.000000, 0.333333)">
                                    <g id="Group-16" transform="translate(0.000000, 0.500000)">
                                        <g id="icon-video-overlay">
                                            <use fill="#000000" xlink:href="#path-1"></use>
                                            <use fill="black" fill-opacity="1" filter="url(#filter-2)" xlink:href="#path-1"></use>
                                        </g>
                                    </g>
                                </g>
                            </g>
                        </g>
                    </g>
                </g>
            </g>
        </g>
    </g>
</svg>