<?xml version="1.0" encoding="UTF-8"?>
<svg width="21px" height="21px" viewBox="0 0 21 21" version="1.1" xmlns="http://www.w3.org/2000/svg" xmlns:xlink="http://www.w3.org/1999/xlink">
    <!-- Generator: Sketch 54.1 (76490) - https://sketchapp.com -->
    <title>icon-video-size</title>
    <desc>Created with Sketch.</desc>
    <g id="Page-1" stroke="none" stroke-width="1" fill="none" fill-rule="evenodd">
        <g id="multiple-monitors-1of2" transform="translate(-446.000000, -573.000000)" fill="#000000" fill-rule="nonzero">
            <g id="Group-15" transform="translate(359.500000, 67.000000)">
                <g id="Group-7" transform="translate(86.500000, 499.000000)">
                    <g id="Group-5">
                        <g id="Group-2">
                            <g id="Group-12">
                                <g id="vid-size">
                                    <path d="M13.8984375,15.2304688 C13.7812494,15.3606777 13.6347665,15.4257812 13.4589844,15.4257812 C13.2832022,15.4257812 13.1367193,15.3606777 13.0195312,15.2304688 C12.8893223,15.1132807 12.8242188,14.9667978 12.8242188,14.7910156 C12.8242188,14.6152335 12.8893223,14.4687506 13.0195312,14.3515625 L18.3710938,9.01953125 L15.421875,9.01953125 C15.291666,9.01953125 15.1744797,8.97721396 15.0703125,8.89257812 C14.9661453,8.80794229 14.9075521,8.69401113 14.8945312,8.55078125 L14.8945312,8.23828125 C14.8945312,8.10807227 14.9401037,7.99739629 15.03125,7.90625 C15.1223963,7.81510371 15.2330723,7.76953125 15.3632812,7.76953125 L19.8359375,7.7890625 L19.8554688,7.7890625 L20.0898438,7.76953125 C20.1419273,7.76953125 20.1972653,7.78255195 20.2558594,7.80859375 C20.3144534,7.83463555 20.3632811,7.8671873 20.4023438,7.90625 C20.4414064,7.9453127 20.470703,7.99088516 20.4902344,8.04296875 C20.5097657,8.09505234 20.5195312,8.15364551 20.5195312,8.21875 L20.4804688,8.453125 L20.4902344,8.453125 C20.4967448,8.453125 20.5,8.45963535 20.5,8.47265625 L20.5,12.984375 C20.4869791,13.1015631 20.4348963,13.1959632 20.34375,13.2675781 C20.2526037,13.3391931 20.1484381,13.3815104 20.03125,13.3945312 L19.6992188,13.3945312 C19.5690098,13.3945312 19.461589,13.3457036 19.3769531,13.2480469 C19.2923173,13.1503901 19.25,13.0429693 19.25,12.9257812 L19.2695312,9.8984375 L13.8984375,15.2304688 Z M7.12109375,20.2695312 C7.23828184,20.1393223 7.38476475,20.0742188 7.56054688,20.0742188 C7.736329,20.0742188 7.88281191,20.1393223 8,20.2695312 C8.13020898,20.3867193 8.1953125,20.5332022 8.1953125,20.7089844 C8.1953125,20.8847665 8.13020898,21.0312494 8,21.1484375 L2.6484375,26.4804688 L5.59765625,26.4804688 C5.72786523,26.4804688 5.84505156,26.522786 5.94921875,26.6074219 C6.05338594,26.6920577 6.1119791,26.8059889 6.125,26.9492188 L6.125,27.2617188 C6.125,27.3919277 6.07942754,27.5026037 5.98828125,27.59375 C5.89713496,27.6848963 5.78645898,27.7304688 5.65625,27.7304688 L1.1640625,27.7109375 L1.14453125,27.7109375 L0.91015625,27.7304688 C0.858072656,27.7304688 0.802734668,27.717448 0.744140625,27.6914062 C0.685546582,27.6653645 0.636718945,27.6328127 0.59765625,27.59375 C0.558593555,27.5546873 0.529296973,27.5091148 0.509765625,27.4570312 C0.490234277,27.4049477 0.48046875,27.3463545 0.48046875,27.28125 L0.51953125,27.046875 L0.509765625,27.046875 C0.503255176,27.046875 0.5,27.0403646 0.5,27.0273438 L0.5,22.515625 C0.513020898,22.3984369 0.565103711,22.3040368 0.65625,22.2324219 C0.747396289,22.1608069 0.851561914,22.1184896 0.96875,22.1054688 L1.3203125,22.1054688 C1.45052148,22.1054688 1.55794229,22.1542964 1.64257812,22.2519531 C1.72721396,22.3496099 1.76953125,22.4570307 1.76953125,22.5742188 L1.75,25.6015625 L7.12109375,20.2695312 Z M20.5,27.0273438 C20.5,27.0403646 20.4967448,27.046875 20.4902344,27.046875 L20.4804688,27.046875 L20.5195312,27.28125 C20.5195312,27.3463545 20.5097657,27.4049477 20.4902344,27.4570312 C20.470703,27.5091148 20.4414064,27.5546873 20.4023438,27.59375 C20.3632811,27.6328127 20.3144534,27.6653645 20.2558594,27.6914062 C20.1972653,27.717448 20.1419273,27.7304688 20.0898438,27.7304688 L19.8554688,27.7109375 L19.8359375,27.7109375 L15.3632812,27.7304688 C15.2330723,27.7304688 15.1223963,27.6848963 15.03125,27.59375 C14.9401037,27.5026037 14.8945312,27.3919277 14.8945312,27.2617188 L14.8945312,26.9492188 C14.9075521,26.8059889 14.9661453,26.6920577 15.0703125,26.6074219 C15.1744797,26.522786 15.291666,26.4804688 15.421875,26.4804688 L18.3710938,26.4804688 L13.0195312,21.1484375 C12.8893223,21.0312494 12.8242188,20.8847665 12.8242188,20.7089844 C12.8242188,20.5332022 12.8893223,20.3867193 13.0195312,20.2695312 C13.1367193,20.1393223 13.2832022,20.0742188 13.4589844,20.0742188 C13.6347665,20.0742188 13.7812494,20.1393223 13.8984375,20.2695312 L19.2695312,25.6015625 L19.25,22.5742188 C19.25,22.4570307 19.2923173,22.3496099 19.3769531,22.2519531 C19.461589,22.1542964 19.5690098,22.1054688 19.6992188,22.1054688 L20.03125,22.1054688 C20.1484381,22.1184896 20.2526037,22.1608069 20.34375,22.2324219 C20.4348963,22.3040368 20.4869791,22.3984369 20.5,22.515625 L20.5,27.0273438 Z M2.6484375,9.01953125 L8,14.3515625 C8.13020898,14.4687506 8.1953125,14.6152335 8.1953125,14.7910156 C8.1953125,14.9667978 8.13020898,15.1132807 8,15.2304688 C7.88281191,15.3606777 7.736329,15.4257812 7.56054688,15.4257812 C7.38476475,15.4257812 7.23828184,15.3606777 7.12109375,15.2304688 L1.75,9.8984375 L1.76953125,12.9257812 C1.76953125,13.0429693 1.72721396,13.1503901 1.64257812,13.2480469 C1.55794229,13.3457036 1.45052148,13.3945312 1.3203125,13.3945312 L0.96875,13.3945312 C0.851561914,13.3815104 0.747396289,13.3391931 0.65625,13.2675781 C0.565103711,13.1959632 0.513020898,13.1015631 0.5,12.984375 L0.5,8.47265625 C0.5,8.45963535 0.503255176,8.453125 0.509765625,8.453125 C0.516276074,8.453125 0.51953125,8.453125 0.51953125,8.453125 L0.48046875,8.21875 C0.48046875,8.15364551 0.490234277,8.09505234 0.509765625,8.04296875 C0.529296973,7.99088516 0.558593555,7.9453127 0.59765625,7.90625 C0.636718945,7.8671873 0.685546582,7.83463555 0.744140625,7.80859375 C0.802734668,7.78255195 0.858072656,7.76953125 0.91015625,7.76953125 L1.14453125,7.7890625 C1.14453125,7.7890625 1.14778643,7.7890625 1.15429688,7.7890625 C1.16080732,7.7890625 1.1640625,7.7890625 1.1640625,7.7890625 L5.65625,7.76953125 C5.78645898,7.76953125 5.89713496,7.81510371 5.98828125,7.90625 C6.07942754,7.99739629 6.125,8.10807227 6.125,8.23828125 L6.125,8.55078125 C6.1119791,8.69401113 6.05338594,8.80794229 5.94921875,8.89257812 C5.84505156,8.97721396 5.72786523,9.01953125 5.59765625,9.01953125 L2.6484375,9.01953125 Z" id="icon-video-size"></path>
                                </g>
                            </g>
                        </g>
                    </g>
                </g>
            </g>
        </g>
    </g>
</svg>