<?xml version="1.0" encoding="UTF-8"?>
<svg width="25px" height="23px" viewBox="0 0 25 23" version="1.1" xmlns="http://www.w3.org/2000/svg" xmlns:xlink="http://www.w3.org/1999/xlink">
    <!-- Generator: Sketch 54.1 (76490) - https://sketchapp.com -->
    <title>icon-video-volume</title>
    <desc>Created with Sketch.</desc>
    <g id="Page-1" stroke="none" stroke-width="1" fill="none" fill-rule="evenodd">
        <g id="multiple-monitors-1of2" transform="translate(-1044.000000, -626.000000)" fill="#000000" fill-rule="nonzero">
            <g id="Group-15" transform="translate(359.500000, 67.000000)">
                <g id="Group-7" transform="translate(86.500000, 499.000000)">
                    <g id="Group-5">
                        <g id="Group-2">
                            <g id="Group-12-Copy-2" transform="translate(557.000000, 0.000000)">
                                <g id="vid-volume" transform="translate(0.000000, 56.000000)">
                                    <path d="M55.0136719,4.17382812 C55.1438809,4.23893262 55.2456051,4.33251892 55.3188477,4.45458984 C55.3920902,4.57666077 55.4287109,4.71093677 55.4287109,4.85742188 L55.4287109,25.2675781 C55.4287109,25.4140632 55.3920902,25.5483392 55.3188477,25.6704102 C55.2456051,25.7924811 55.1438809,25.8860674 55.0136719,25.9511719 C54.9648435,25.9837241 54.9078779,26.0081379 54.8427734,26.0244141 C54.7776689,26.0406902 54.7125654,26.0488281 54.6474609,26.0488281 C54.5823564,26.0488281 54.513184,26.0366212 54.4399414,26.012207 C54.3666989,25.9877928 54.2975264,25.9511721 54.2324219,25.9023438 L46.4199219,19.75 L43.8320312,19.75 C43.1647102,19.75 42.5950544,19.5424825 42.1230469,19.1274414 C41.6510393,18.7124003 41.4150391,18.211917 41.4150391,17.6259766 L41.3662109,12.4746094 C41.3662109,11.8886689 41.6022112,11.3922546 42.0742188,10.9853516 C42.5462263,10.5784485 43.1158821,10.375 43.7832031,10.375 L46.3710938,10.375 L54.2324219,4.22265625 C54.3463547,4.14127563 54.4765618,4.09651697 54.6230469,4.08837891 C54.769532,4.08024084 54.899739,4.10872363 55.0136719,4.17382812 Z M53.8662109,23.8027344 L53.8662109,6.32226562 L47.0546875,11.7910156 C46.989583,11.839844 46.9204105,11.8764647 46.847168,11.9008789 C46.7739254,11.9252931 46.696615,11.9375 46.6152344,11.9375 L43.7832031,11.9375 C43.5227852,11.9375 43.3152677,11.9944656 43.1606445,12.1083984 C43.0060214,12.2223313 42.9287109,12.3444004 42.9287109,12.4746094 L42.9775391,17.6259766 C42.9775391,17.7561855 43.0548495,17.8823236 43.2094727,18.0043945 C43.3640958,18.1264655 43.5716133,18.1875 43.8320312,18.1875 L46.6640625,18.1875 C46.7454431,18.1875 46.8227535,18.1956379 46.8959961,18.2119141 C46.9692386,18.2281902 47.0384111,18.2607419 47.1035156,18.3095703 L53.8662109,23.8027344 Z M61.703125,15.2089844 C61.703125,16.2018279 61.3857454,17.0888633 60.7509766,17.8701172 C60.1162078,18.6513711 59.3105518,19.1396475 58.3339844,19.3349609 C58.3177083,19.3349609 58.2973634,19.3390299 58.2729492,19.347168 C58.248535,19.355306 58.2200522,19.359375 58.1875,19.359375 C58.0084626,19.359375 57.8457039,19.2983405 57.6992188,19.1762695 C57.5527336,19.0541986 57.4632163,18.9036467 57.4306641,18.7246094 C57.3818357,18.5130198 57.4184564,18.3177092 57.5405273,18.1386719 C57.6625983,17.9596345 57.829426,17.8457034 58.0410156,17.796875 C58.6595083,17.6829421 59.1640605,17.3777694 59.5546875,16.8813477 C59.9453145,16.3849259 60.140625,15.8274771 60.140625,15.2089844 C60.140625,14.5416633 59.9493834,13.9638696 59.5668945,13.4755859 C59.1844056,12.9873022 58.6839224,12.6943364 58.0654297,12.5966797 C57.8538401,12.5641274 57.6870123,12.4583342 57.5649414,12.2792969 C57.4428705,12.1002595 57.3981118,11.904949 57.4306641,11.6933594 C57.4632163,11.4817698 57.5649406,11.310873 57.7358398,11.1806641 C57.9067391,11.0504551 58.1061187,11.0097654 58.3339844,11.0585938 C59.3105518,11.221355 60.1162078,11.6933555 60.7509766,12.4746094 C61.3857454,13.2558633 61.703125,14.1673125 61.703125,15.2089844 Z M60.6777344,8.03125 C61.426436,8.30794409 62.101885,8.68635828 62.7041016,9.16650391 C63.3063181,9.64664954 63.8271462,10.2000294 64.2666016,10.8266602 C64.7060569,11.4532909 65.0437814,12.1409468 65.2797852,12.8896484 C65.5157889,13.6383501 65.6337891,14.4114543 65.6337891,15.2089844 C65.6337891,15.9902383 65.5157889,16.7552046 65.2797852,17.5039062 C65.0437814,18.2526079 64.7060569,18.9402638 64.2666016,19.5668945 C63.8271462,20.1935253 63.3063181,20.7469052 62.7041016,21.2270508 C62.101885,21.7071964 61.426436,22.0856106 60.6777344,22.3623047 C60.628906,22.3785808 60.5841473,22.3907877 60.543457,22.3989258 C60.5027667,22.4070638 60.4580081,22.4111328 60.4091797,22.4111328 C60.2464185,22.4111328 60.0999355,22.3663741 59.9697266,22.2768555 C59.8395176,22.1873368 59.7418623,22.0693367 59.6767578,21.9228516 C59.5953772,21.711262 59.5994462,21.5078135 59.6889648,21.3125 C59.7784835,21.1171865 59.9290354,20.9869795 60.140625,20.921875 C61.3125059,20.4661436 62.2605758,19.7133842 62.9848633,18.6635742 C63.7091508,17.6137643 64.0712891,16.4622458 64.0712891,15.2089844 C64.0712891,13.9394468 63.7091508,12.7797904 62.9848633,11.7299805 C62.2605758,10.6801705 61.3125059,9.93554907 60.140625,9.49609375 C59.9290354,9.41471313 59.7784835,9.27636816 59.6889648,9.08105469 C59.5994462,8.88574121 59.5953772,8.69043066 59.6767578,8.49511719 C59.7418623,8.28352759 59.8761383,8.13297571 60.0795898,8.04345703 C60.2830414,7.95393835 60.4824209,7.94986938 60.6777344,8.03125 Z" id="icon-video-volume"></path>
                                </g>
                            </g>
                        </g>
                    </g>
                </g>
            </g>
        </g>
    </g>
</svg>