<?xml version="1.0" encoding="UTF-8"?>
<svg width="21px" height="11px" viewBox="0 0 21 11" version="1.1" xmlns="http://www.w3.org/2000/svg" xmlns:xlink="http://www.w3.org/1999/xlink">
    <!-- Generator: Sketch 54.1 (76490) - https://sketchapp.com -->
    <title>icon-arrow-down</title>
    <desc>Created with Sketch.</desc>
    <g id="Page-1" stroke="none" stroke-width="1" fill="none" fill-rule="evenodd">
        <g id="multiple-monitors-1of2" transform="translate(-744.000000, -579.000000)" fill="#000000" fill-rule="nonzero">
            <g id="Group-15" transform="translate(359.500000, 67.000000)">
                <g id="Group-7" transform="translate(86.500000, 499.000000)">
                    <g id="Group-5">
                        <g id="Group-2">
                            <g id="Group-12">
                                <g id="vid-size">
                                    <g id="Rectangle-Copy-4" transform="translate(179.500000, 0.000000)">
                                        <path d="M119.15625,13.7460938 C119.15625,13.6679684 119.172526,13.586589 119.205078,13.5019531 C119.23763,13.4173173 119.286458,13.3424482 119.351562,13.2773438 C119.481771,13.1601557 119.63802,13.1015625 119.820312,13.1015625 C120.002605,13.1015625 120.158854,13.1601557 120.289062,13.2773438 L129.117188,22.1054688 L137.808594,13.4140625 C137.938803,13.2838535 138.095051,13.21875 138.277344,13.21875 C138.459636,13.21875 138.615885,13.2838535 138.746094,13.4140625 C138.876303,13.5442715 138.941406,13.7005199 138.941406,13.8828125 C138.941406,14.0651051 138.876303,14.2213535 138.746094,14.3515625 L129.585938,23.5117188 C129.455729,23.6419277 129.29948,23.7070312 129.117188,23.7070312 C128.934895,23.7070312 128.778646,23.6419277 128.648438,23.5117188 L119.351562,14.234375 C119.286458,14.1692705 119.23763,14.0944015 119.205078,14.0097656 C119.172526,13.9251298 119.15625,13.83724 119.15625,13.7460938 Z" id="icon-arrow-down"></path>
                                    </g>
                                </g>
                            </g>
                        </g>
                    </g>
                </g>
            </g>
        </g>
    </g>
</svg>